<svg width="47" height="45" viewBox="0 0 47 45" fill="none" xmlns="http://www.w3.org/2000/svg">
<path d="M45.1158 22.2922C45.1158 33.7699 35.4367 43.1391 23.4153 43.1391C11.394 43.1391 1.71484 33.7699 1.71484 22.2922C1.71484 10.8146 11.394 1.44531 23.4153 1.44531C35.4367 1.44531 45.1158 10.8146 45.1158 22.2922Z" stroke="white" stroke-width="2"/>
<path d="M20.7546 33.9452V23.1294H17.7744V19.2352H20.7546V15.909C20.7546 13.2953 22.515 10.895 26.5714 10.895C28.2138 10.895 29.4283 11.0461 29.4283 11.0461L29.3326 14.6826C29.3326 14.6826 28.094 14.6711 26.7425 14.6711C25.2797 14.6711 25.0453 15.318 25.0453 16.3917V19.2352H29.4488L29.2572 23.1294H25.0453V33.9452H20.7546Z" fill="white"/>
</svg>
