<svg width="46" height="44" viewBox="0 0 46 44" fill="none" xmlns="http://www.w3.org/2000/svg">
<path d="M16.725 7.75H28.275C32.675 7.75 36.25 11.325 36.25 15.725V27.275C36.25 29.3901 35.4098 31.4186 33.9142 32.9142C32.4186 34.4098 30.3901 35.25 28.275 35.25H16.725C12.325 35.25 8.75 31.675 8.75 27.275V15.725C8.75 13.6099 9.59022 11.5814 11.0858 10.0858C12.5814 8.59022 14.6099 7.75 16.725 7.75V7.75ZM16.45 10.5C15.1372 10.5 13.8781 11.0215 12.9498 11.9498C12.0215 12.8781 11.5 14.1372 11.5 15.45V27.55C11.5 30.2863 13.7137 32.5 16.45 32.5H28.55C29.8628 32.5 31.1219 31.9785 32.0502 31.0502C32.9785 30.1219 33.5 28.8628 33.5 27.55V15.45C33.5 12.7138 31.2862 10.5 28.55 10.5H16.45ZM29.7188 12.5625C30.1746 12.5625 30.6118 12.7436 30.9341 13.0659C31.2564 13.3882 31.4375 13.8254 31.4375 14.2813C31.4375 14.7371 31.2564 15.1743 30.9341 15.4966C30.6118 15.8189 30.1746 16 29.7188 16C29.2629 16 28.8257 15.8189 28.5034 15.4966C28.1811 15.1743 28 14.7371 28 14.2813C28 13.8254 28.1811 13.3882 28.5034 13.0659C28.8257 12.7436 29.2629 12.5625 29.7188 12.5625ZM22.5 14.625C24.3234 14.625 26.072 15.3493 27.3614 16.6386C28.6507 17.928 29.375 19.6766 29.375 21.5C29.375 23.3234 28.6507 25.072 27.3614 26.3614C26.072 27.6507 24.3234 28.375 22.5 28.375C20.6766 28.375 18.928 27.6507 17.6386 26.3614C16.3493 25.072 15.625 23.3234 15.625 21.5C15.625 19.6766 16.3493 17.928 17.6386 16.6386C18.928 15.3493 20.6766 14.625 22.5 14.625V14.625ZM22.5 17.375C21.406 17.375 20.3568 17.8096 19.5832 18.5832C18.8096 19.3568 18.375 20.406 18.375 21.5C18.375 22.594 18.8096 23.6432 19.5832 24.4168C20.3568 25.1904 21.406 25.625 22.5 25.625C23.594 25.625 24.6432 25.1904 25.4168 24.4168C26.1904 23.6432 26.625 22.594 26.625 21.5C26.625 20.406 26.1904 19.3568 25.4168 18.5832C24.6432 17.8096 23.594 17.375 22.5 17.375Z" fill="white"/>
<path d="M44.401 21.8469C44.401 33.3245 34.7218 42.6938 22.7005 42.6938C10.6792 42.6938 1 33.3245 1 21.8469C1 10.3693 10.6792 1 22.7005 1C34.7218 1 44.401 10.3693 44.401 21.8469Z" stroke="white" stroke-width="2"/>
</svg>
